<svg version="1.1" xmlns="http://www.w3.org/2000/svg" xmlns:xlink="http://www.w3.org/1999/xlink" width="auto" height="auto" viewBox="0,0,256,256"><g fill="#06a3da" fill-rule="nonzero" stroke="none" stroke-width="1" stroke-linecap="butt" stroke-linejoin="miter" stroke-miterlimit="10" stroke-dasharray="" stroke-dashoffset="0" font-family="none" font-weight="none" font-size="none" text-anchor="none" style="mix-blend-mode: normal"><g transform="scale(4,4)"><path d="M14,17c3.309,0 6,2.916 6,6.5c0,3.584 -2.691,6.5 -6,6.5c-3.309,0 -6,-2.916 -6,-6.5c0,-3.584 2.691,-6.5 6,-6.5zM23.246,36.071c-3.464,1.535 -6.377,3.921 -8.34,6.929h-9.321c-1.344,0 -2.754,-1.135 -2.57,-2.812c0.506,-4.667 5.229,-8.188 10.985,-8.188c3.876,0 7.278,1.602 9.246,4.071zM60.985,40.181c0.183,1.677 -1.236,2.819 -2.576,2.819c-2.079,0 -8.315,0 -8.315,0c-2.101,-3.219 -5.288,-5.732 -9.074,-7.245c1.999,-2.288 5.271,-3.755 8.98,-3.755c5.751,0 10.479,3.516 10.985,8.181zM50,17c3.309,0 6,2.916 6,6.5c0,3.584 -2.691,6.5 -6,6.5c-3.309,0 -6,-2.916 -6,-6.5c0,-3.584 2.691,-6.5 6,-6.5zM47.565,46.613c1.485,3.082 -0.968,6.387 -4.134,6.387c-5.465,0 -16.396,0 -21.861,0c-3.006,0 -5.691,-3.156 -4.135,-6.387c2.48,-5.15 8.394,-8.477 15.065,-8.477c6.671,0 12.585,3.327 15.065,8.477zM32,19c4.411,0 8,3.813 8,8.5c0,4.687 -3.589,8.5 -8,8.5c-4.411,0 -8,-3.813 -8,-8.5c0,-4.687 3.589,-8.5 8,-8.5z"></path></g></g></svg>